<svg width="93" height="96" viewBox="0 0 93 96" fill="none" xmlns="http://www.w3.org/2000/svg">
<path d="M21.5614 55.9727C25.1482 55.9727 28.0559 53.0856 28.0559 49.5242C28.0559 45.9629 25.1482 43.0758 21.5614 43.0758C17.9747 43.0758 15.067 45.9629 15.067 49.5242C15.067 53.0856 17.9747 55.9727 21.5614 55.9727Z" fill="#1CB496"/>
<path d="M60.0084 49.5242C60.0084 53.0856 57.1007 55.9727 53.514 55.9727C49.9272 55.9727 47.0195 53.0856 47.0195 49.5242C47.0195 45.9629 49.9272 43.0758 53.514 43.0758C57.1007 43.0758 60.0084 45.9629 60.0084 49.5242Z" fill="#1CB496"/>
<path fill-rule="evenodd" clip-rule="evenodd" d="M55.9818 7.56103C57.5628 7.06801 58.7095 5.60152 58.7095 3.86908C58.7095 1.73224 56.9648 0 54.8129 0C52.6609 0 50.9162 1.73224 50.9162 3.86908C50.9162 5.64862 52.1262 7.14756 53.7737 7.59908V15.2848C53.7737 15.49 53.8558 15.6868 54.0021 15.8319L57.1823 18.9898C57.3285 19.1349 57.4106 19.3317 57.4106 19.5369V21.0107C57.4106 21.3236 57.1324 21.5639 56.8191 21.5302C56.0748 21.45 55.3189 21.4089 54.5531 21.4089H20.7821C9.30447 21.4089 0 30.6475 0 42.044V62.6791C0 72.108 6.36437 80.0598 15.0621 82.5244L15.0612 93.4156C15.0611 95.6189 17.6635 96.808 19.3489 95.3746L33.5301 83.3142H54.5539C66.0316 83.3142 75.3352 74.0756 75.3352 62.6791V61.0332C75.3352 60.7698 75.4365 60.5168 75.6183 60.3254L83.8255 51.6824C83.9619 51.5387 84.0377 51.3489 84.0377 51.1516V41.8536C84.0377 41.6455 84.1221 41.4461 84.272 41.3006L89.9081 35.823C90.058 35.6776 90.1425 35.4782 90.1425 35.27V21.0119C91.79 20.5604 93 19.0614 93 17.2819C93 15.145 91.2553 13.4128 89.1033 13.4128C86.9514 13.4128 85.2067 15.145 85.2067 17.2819C85.2067 18.9665 86.291 20.3997 87.8045 20.9308V33.7273C87.8045 33.9326 87.7224 34.1294 87.5761 34.2746L81.7982 40.0117C81.6519 40.1569 81.5698 40.3537 81.5698 40.559V49.4522C81.5698 49.663 81.4833 49.8647 81.3301 50.0107L75.7747 55.3013C75.6095 55.4586 75.3352 55.3423 75.3352 55.1153V46.2556C75.3352 46.0593 75.4843 45.8989 75.6436 45.7826L77.616 44.3394C77.8153 44.1937 77.933 43.9623 77.933 43.7165V28.0372C77.933 27.8388 77.8563 27.6482 77.7189 27.5045L73.3411 22.9225C73.2037 22.7787 73.1271 22.5881 73.1271 22.3899V14.2674C74.7081 13.7744 75.8547 12.3079 75.8547 10.5755C75.8547 8.43864 74.1101 6.7064 71.9581 6.7064C69.8061 6.7064 68.0615 8.43864 68.0615 10.5755C68.0615 12.2601 69.1458 13.6933 70.6592 14.2244V23.5637C70.6592 23.7541 70.7299 23.9378 70.8577 24.0797L74.8769 28.5399C75.0048 28.6817 75.0754 28.8654 75.0754 29.0558V36.3693C75.0754 36.3892 75.0746 36.4086 75.0731 36.4282C75.0466 36.7797 74.626 36.6678 74.5278 36.3288C72.639 29.8084 67.5993 24.6126 61.1509 22.4705C60.9355 22.399 60.7877 22.2003 60.7877 21.9749V19.5369C60.7877 19.3317 60.7056 19.1349 60.5594 18.9898L56.2102 14.6712C56.0639 14.5261 55.9818 14.3293 55.9818 14.124V7.56103ZM56.8911 3.86908C56.8911 5.00873 55.9605 5.93259 54.8129 5.93259C53.6652 5.93259 52.7346 5.00873 52.7346 3.86908C52.7346 2.72943 53.6652 1.80557 54.8129 1.80557C55.9605 1.80557 56.8911 2.72943 56.8911 3.86908ZM74.0363 10.5755C74.0363 11.7151 73.1058 12.639 71.9581 12.639C70.8104 12.639 69.8799 11.7151 69.8799 10.5755C69.8799 9.43583 70.8104 8.51197 71.9581 8.51197C73.1058 8.51197 74.0363 9.43583 74.0363 10.5755ZM9.09218 42.5599C9.09218 35.7219 14.6749 30.1788 21.5615 30.1788H53.7737C60.6604 30.1788 66.243 35.7219 66.243 42.5599V56.4886C66.243 63.3265 60.6604 68.8696 53.7737 68.8696H21.5615C14.6749 68.8696 9.09218 63.3265 9.09218 56.4886V42.5599ZM89.1033 19.3454C90.251 19.3454 91.1816 18.4215 91.1816 17.2819C91.1816 16.1422 90.251 15.2184 89.1033 15.2184C87.9557 15.2184 87.0251 16.1422 87.0251 17.2819C87.0251 18.4215 87.9557 19.3454 89.1033 19.3454Z" fill="#1CB496"/>
</svg>
